<?xml version="1.0" encoding="UTF-8"?>
<svg xmlns="http://www.w3.org/2000/svg" width="140" height="32" viewBox="0 0 140 32" fill="none">
  <g id="Logo" clip-path="url(#clip0_2183_7676)">
    <path id="Vector" d="M104.381 0H95.9932V31.5222H104.381V0Z" fill="#24272F"></path>
    <path id="Vector_2" d="M75.6821 25.339C72.3278 25.339 69.5909 23.413 69.5909 19.9014C69.5909 16.3899 72.3256 14.4638 75.6821 14.4638C79.0385 14.4638 81.8142 16.3899 81.8142 19.9014C81.8229 23.413 79.0363 25.339 75.6821 25.339ZM75.6821 7.80502C67.5641 7.80502 61.3369 12.497 61.3369 19.9036C61.3369 27.3101 67.5576 32.0021 75.6821 32.0021C83.8065 32.0021 90.0704 27.2673 90.0704 19.9036C90.0704 12.5399 83.8928 7.80502 75.6821 7.80502Z" fill="#24272F"></path>
    <path id="Vector_3" d="M28.509 19.8158C28.509 12.4671 22.3746 7.81147 14.2372 7.81147C6.17752 7.80504 0 12.4606 0 19.8072C0 20.3 0.0323769 20.7863 0.0863385 21.2555H0.0798631L0.16836 21.8854C1.1742 27.9679 6.75383 32 14.5221 32C21.399 32 27.2117 28.7992 27.9564 23.3765H19.8751C18.8391 24.947 16.7907 25.5983 14.479 25.5983C11.3427 25.5983 9.09576 24.2807 8.30144 21.9132L8.23237 21.3412H26.534V21.3348H28.4162V21.3412C28.4809 20.842 28.5111 20.3342 28.5111 19.8136L28.509 19.8158ZM8.23022 19.1066C8.57125 16.0707 11.1355 14.4146 14.2372 14.4146C17.3389 14.4146 19.9399 16.0707 20.2874 19.1066H8.23022Z" fill="#24272F"></path>
    <path id="Vector_4" d="M45.0945 22.7552L38.4724 8.33209H29.1133L40.4107 31.4794H49.2366L60.4887 8.33209H51.6649L45.0945 22.7552Z" fill="#24272F"></path>
    <g id="Group">
      <path id="Vector_5" d="M131.174 8.32565L129.836 11.0809H138.662L140 8.32565H131.174Z" fill="#24272F"></path>
      <path id="Vector_6" d="M125.815 19.353H134.639L137.322 13.834H128.498L125.815 19.353Z" fill="#24272F"></path>
      <path id="Vector_7" d="M121.289 15.5394L117.982 8.32565H108.625L119.922 31.4794H128.597L128.593 31.4708H128.746L133.199 22.316L124.386 22.2946L121.289 15.5394Z" fill="#24272F"></path>
    </g>
  </g>
  <defs>
    <clipPath id="clip0_2183_7676">
      <rect width="140" height="32" fill="white"></rect>
    </clipPath>
  </defs>
</svg>
